<svg width="1176" height="417" viewBox="0 0 1176 417" fill="none" xmlns="http://www.w3.org/2000/svg">
<circle cx="15" cy="27" r="27" fill="white"/>
<circle cx="50.1337" cy="54.1337" r="21.5" transform="rotate(-7.53495 50.1337 54.1337)" fill="white"/>
<circle cx="79" cy="65" r="18" fill="white"/>
<circle cx="101" cy="96" r="27" fill="white"/>
<circle cx="127.5" cy="118.5" r="19.5" fill="white"/>
<circle cx="199" cy="144" r="27" fill="white"/>
<ellipse cx="194.5" cy="106.5" rx="38.5" ry="37.5" fill="white"/>
<ellipse cx="696.5" cy="112.5" rx="38.5" ry="37.5" fill="white"/>
<circle cx="167" cy="130" r="27" fill="white"/>
<circle cx="669" cy="136" r="27" fill="white"/>
<circle cx="207" cy="100" r="19" fill="white"/>
<circle cx="715" cy="77" r="19" fill="white"/>
<circle cx="360" cy="112" r="19" fill="white"/>
<circle cx="862" cy="121" r="28" fill="white"/>
<circle cx="387.5" cy="125.5" r="22.5" fill="white"/>
<circle cx="903.5" cy="109.5" r="22.5" fill="white"/>
<circle cx="423" cy="135" r="35" fill="white"/>
<circle cx="925" cy="141" r="35" fill="white"/>
<circle cx="451" cy="96" r="35" fill="white"/>
<circle cx="953" cy="102" r="35" fill="white"/>
<circle cx="478.5" cy="102.5" r="27.5" fill="white"/>
<circle cx="980.5" cy="108.5" r="27.5" fill="white"/>
<circle cx="487.5" cy="57.5" r="27.5" fill="white"/>
<circle cx="989.5" cy="63.5" r="27.5" fill="white"/>
<circle cx="492.5" cy="60.5" r="27.5" transform="rotate(-12.195 492.5 60.5)" fill="white"/>
<circle cx="994.5" cy="66.5" r="27.5" transform="rotate(-12.195 994.5 66.5)" fill="white"/>
<circle cx="573.5" cy="48.5" r="22.5" fill="white"/>
<circle cx="1075.5" cy="54.5" r="22.5" fill="white"/>
<circle cx="612.5" cy="65.5" r="27.5" fill="white"/>
<circle cx="1114.5" cy="71.5" r="27.5" fill="white"/>
<circle cx="636" cy="111" r="38" fill="white"/>
<circle cx="1142" cy="107" r="38" fill="white"/>
<circle cx="529.5" cy="45.5" r="32.5" fill="white"/>
<circle cx="1031.5" cy="51.5" r="32.5" fill="white"/>
<circle cx="519.5" cy="97.5" r="32.5" fill="white"/>
<circle cx="1021.5" cy="103.5" r="32.5" fill="white"/>
<circle cx="570.003" cy="91.2547" r="40.3989" transform="rotate(4.56414 570.003 91.2547)" fill="white"/>
<circle cx="1072" cy="97.2547" r="40.3989" transform="rotate(4.56414 1072 97.2547)" fill="white"/>
<circle cx="111" cy="83" r="29" fill="white"/>
<circle cx="227.5" cy="118.5" r="20.5" fill="white"/>
<circle cx="729.5" cy="124.5" r="20.5" fill="white"/>
<circle cx="259" cy="96" r="42" fill="white"/>
<circle cx="761" cy="102" r="42" fill="white"/>
<circle cx="293.507" cy="90.1597" r="28.3794" transform="rotate(8.25411 293.507 90.1597)" fill="white"/>
<circle cx="795.507" cy="96.1597" r="28.3794" transform="rotate(8.25411 795.507 96.1597)" fill="white"/>
<circle cx="318.16" cy="119.16" r="28.3794" transform="rotate(8.25411 318.16 119.16)" fill="white"/>
<circle cx="820.16" cy="125.16" r="28.3794" transform="rotate(8.25411 820.16 125.16)" fill="white"/>
<circle cx="282.5" cy="114.5" r="18.5" fill="white"/>
<circle cx="784.5" cy="120.5" r="18.5" fill="white"/>
<ellipse cx="20" cy="139.5" rx="88" ry="97.5" fill="white"/>
<rect x="-54" y="117" width="1278" height="396" rx="7" fill="white"/>
</svg>
