<svg width="50" height="50" viewBox="0 0 50 50" fill="none" xmlns="http://www.w3.org/2000/svg">
<path fill-rule="evenodd" clip-rule="evenodd" d="M12 0C5.37258 0 0 5.37258 0 12V38C0 44.6274 5.37258 50 12 50H38C44.6274 50 50 44.6274 50 38V12C50 5.37258 44.6274 0 38 0H12ZM13 5C8.58172 5 5 8.58172 5 13V37C5 41.4183 8.58172 45 13 45H37C41.4183 45 45 41.4183 45 37V13C45 8.58172 41.4183 5 37 5H13Z" fill="#1E1E1E"/>
<circle cx="25" cy="25" r="8" fill="white" stroke="#1E1E1E" stroke-width="4"/>
<path d="M40.5 13C40.5 14.933 38.933 16.5 37 16.5C35.067 16.5 33.5 14.933 33.5 13C33.5 11.067 35.067 9.5 37 9.5C38.933 9.5 40.5 11.067 40.5 13Z" fill="#1E1E1E"/>
</svg>
