<svg width="52" height="45" viewBox="0 0 52 45" fill="none" xmlns="http://www.w3.org/2000/svg">
<path d="M2.75945 25.7072L16.2666 27.2136C16.7399 27.2664 17.2166 27.1485 17.6108 26.8812L40.9568 11.0493C40.9999 11.02 41.0408 10.9874 41.0789 10.9518L42.4471 9.67108L24.1634 29.7706C23.7955 30.175 23.8183 30.7981 24.2143 31.1751C27.0591 33.8835 33.1726 39.8699 36.2981 42.7954C39.6369 45.9205 41.4134 43.8983 41.9617 42.8696C41.9881 42.8201 42.0075 42.7709 42.0238 42.7172C45.5225 31.1819 50.4747 6.15146 51 2.99997C51.5 0 48.4006 0.610455 46.5 1.49995L36.7452 5.66832C27.7171 9.67107 8.52067 18.2102 3.95913 20.345C-0.402102 22.3861 0.97004 24.5898 2.34478 25.5568C2.46711 25.6428 2.61081 25.6906 2.75945 25.7072Z" fill="#1E1E1E" stroke="black"/>
</svg>
